<mxfile host="app.diagrams.net" modified="2021-07-26T13:38:11.098Z" agent="5.0 (Macintosh; Intel Mac OS X 10_15_7) AppleWebKit/537.36 (KHTML, like Gecko) Chrome/92.0.4515.107 Safari/537.36" etag="jP49DmunaoTeVoLOaV_v" version="14.9.2" type="github">
  <diagram id="NuNeDP4s5AKi3y37Stm7" name="Page-1">
    <mxGraphModel dx="3565" dy="1928" grid="1" gridSize="10" guides="1" tooltips="1" connect="1" arrows="1" fold="1" page="1" pageScale="1" pageWidth="850" pageHeight="1100" math="0" shadow="0">
      <root>
        <mxCell id="0" />
        <mxCell id="1" parent="0" />
        <mxCell id="VyxAzK_4GtYRlAjmE1mU-1" value="Data Vault" style="shape=ext;double=1;rounded=1;whiteSpace=wrap;html=1;verticalAlign=top;" vertex="1" parent="1">
          <mxGeometry x="780" y="20" width="350" height="340" as="geometry" />
        </mxCell>
        <mxCell id="VyxAzK_4GtYRlAjmE1mU-2" value="Data Coalitions" style="shape=ext;double=1;rounded=1;whiteSpace=wrap;html=1;verticalAlign=top;" vertex="1" parent="1">
          <mxGeometry x="1130" y="500" width="350" height="340" as="geometry" />
        </mxCell>
        <mxCell id="VyxAzK_4GtYRlAjmE1mU-3" value="Itheum Data DEX DApp" style="shape=ext;double=1;rounded=0;whiteSpace=wrap;html=1;verticalAlign=top;" vertex="1" parent="1">
          <mxGeometry x="10" y="110" width="330" height="320" as="geometry" />
        </mxCell>
        <mxCell id="VyxAzK_4GtYRlAjmE1mU-16" style="edgeStyle=orthogonalEdgeStyle;rounded=0;orthogonalLoop=1;jettySize=auto;html=1;exitX=0.5;exitY=1;exitDx=0;exitDy=0;" edge="1" parent="1" source="VyxAzK_4GtYRlAjmE1mU-4" target="VyxAzK_4GtYRlAjmE1mU-8">
          <mxGeometry relative="1" as="geometry" />
        </mxCell>
        <mxCell id="VyxAzK_4GtYRlAjmE1mU-4" value="Data Set (Peer to Peer Trades)" style="shape=ext;double=1;rounded=1;whiteSpace=wrap;html=1;verticalAlign=top;" vertex="1" parent="1">
          <mxGeometry x="60" y="580" width="350" height="340" as="geometry" />
        </mxCell>
        <mxCell id="VyxAzK_4GtYRlAjmE1mU-17" style="edgeStyle=orthogonalEdgeStyle;rounded=0;orthogonalLoop=1;jettySize=auto;html=1;entryX=1;entryY=0.5;entryDx=0;entryDy=0;" edge="1" parent="1" source="VyxAzK_4GtYRlAjmE1mU-5" target="VyxAzK_4GtYRlAjmE1mU-8">
          <mxGeometry relative="1" as="geometry" />
        </mxCell>
        <mxCell id="VyxAzK_4GtYRlAjmE1mU-5" value="Data NFTs (NFT Marketplace Trades)" style="shape=ext;double=1;rounded=1;whiteSpace=wrap;html=1;verticalAlign=top;" vertex="1" parent="1">
          <mxGeometry x="800" y="890" width="350" height="340" as="geometry" />
        </mxCell>
        <mxCell id="VyxAzK_4GtYRlAjmE1mU-8" value="Raw Data Storage" style="shape=ext;double=1;rounded=0;whiteSpace=wrap;html=1;verticalAlign=top;" vertex="1" parent="1">
          <mxGeometry x="30" y="1250" width="440" height="240" as="geometry" />
        </mxCell>
        <mxCell id="VyxAzK_4GtYRlAjmE1mU-12" value="Cons" style="swimlane;fontStyle=1;align=center;verticalAlign=top;childLayout=stackLayout;horizontal=1;startSize=26;horizontalStack=0;resizeParent=1;resizeParentMax=0;resizeLast=0;collapsible=1;marginBottom=0;" vertex="1" parent="1">
          <mxGeometry x="540" y="430" width="160" height="94" as="geometry">
            <mxRectangle x="540" y="430" width="60" height="26" as="alternateBounds" />
          </mxGeometry>
        </mxCell>
        <mxCell id="VyxAzK_4GtYRlAjmE1mU-13" value="Too many steps required to completeÂ " style="text;strokeColor=none;fillColor=none;align=left;verticalAlign=top;spacingLeft=4;spacingRight=4;overflow=hidden;rotatable=0;points=[[0,0.5],[1,0.5]];portConstraint=eastwest;whiteSpace=wrap;" vertex="1" parent="VyxAzK_4GtYRlAjmE1mU-12">
          <mxGeometry y="26" width="160" height="34" as="geometry" />
        </mxCell>
        <mxCell id="VyxAzK_4GtYRlAjmE1mU-14" value="" style="line;strokeWidth=1;fillColor=none;align=left;verticalAlign=middle;spacingTop=-1;spacingLeft=3;spacingRight=3;rotatable=0;labelPosition=right;points=[];portConstraint=eastwest;" vertex="1" parent="VyxAzK_4GtYRlAjmE1mU-12">
          <mxGeometry y="60" width="160" height="8" as="geometry" />
        </mxCell>
        <mxCell id="VyxAzK_4GtYRlAjmE1mU-15" value="+ method(type): type" style="text;strokeColor=none;fillColor=none;align=left;verticalAlign=top;spacingLeft=4;spacingRight=4;overflow=hidden;rotatable=0;points=[[0,0.5],[1,0.5]];portConstraint=eastwest;" vertex="1" parent="VyxAzK_4GtYRlAjmE1mU-12">
          <mxGeometry y="68" width="160" height="26" as="geometry" />
        </mxCell>
      </root>
    </mxGraphModel>
  </diagram>
</mxfile>
